<svg xmlns="http://www.w3.org/2000/svg" viewBox="0 0 1000 680" width="100%" font-family="ui-monospace,Menlo,monospace">
<rect width="1000" height="680" fill="#fafaf8"/>
<text x="500" y="28" text-anchor="middle" font-size="14" fill="#24231d" font-weight="600">Щит подіуму і дерево кабелів · Hero Armor 2026</text>
<text x="500" y="46" text-anchor="middle" font-size="11" fill="#6b675c">12 В шина · пік 86 Вт · головний запобіжник 15 А · усі довжини — прикидки (★)</text>
<rect x="36" y="250" width="90" height="100" rx="4" fill="#efeee7" stroke="#24231d" stroke-width="2.0"/>
<text x="81" y="268" text-anchor="middle" font-size="11" fill="#24231d" font-weight="600">Станція</text>
<text x="81" y="283" text-anchor="middle" font-size="11" fill="#24231d">EcoFlow</text>
<text x="81" y="302" text-anchor="middle" font-size="10" fill="#6b675c">12 В вихід</text>
<text x="81" y="317" text-anchor="middle" font-size="10" fill="#6b675c">15 А макс</text>
<text x="81" y="333" text-anchor="middle" font-size="10" fill="#c9c6ba">12 В вихід 30 А</text>
<line x1="126" y1="300" x2="370" y2="300" stroke="#b35b1e" stroke-width="3.5"/>
<rect x="239" y="296" width="18" height="9" fill="white" stroke="#b35b1e" stroke-width="1.5" rx="2"/>
<line x1="239" y1="300" x2="257" y2="300" stroke="#b35b1e" stroke-width="1.5"/>
<text x="248" y="278" text-anchor="middle" font-size="10" fill="#b35b1e">Головний 15 А (7.1 А робочий)</text>
<text x="248" y="318" text-anchor="middle" font-size="10" fill="#24231d">~AWG8 7.6м 7.15А −1.9%</text>
<rect x="370" y="250" width="90" height="170" rx="4" fill="#f7f5f0" stroke="#24231d" stroke-width="2.0"/>
<text x="415" y="264" text-anchor="middle" font-size="11" fill="#24231d" font-weight="600">Щит</text>
<text x="415" y="278" text-anchor="middle" font-size="11" fill="#24231d" font-weight="600">подіуму</text>
<rect x="408" y="307" width="14" height="7" fill="white" stroke="#b07c14" stroke-width="1.5" rx="2"/>
<line x1="408" y1="310" x2="422" y2="310" stroke="#b07c14" stroke-width="1.5"/>
<text x="415" y="298" text-anchor="middle" font-size="9" fill="#b07c14">5 А</text>
<rect x="408" y="347" width="14" height="7" fill="white" stroke="#3d6f96" stroke-width="1.5" rx="2"/>
<line x1="408" y1="350" x2="422" y2="350" stroke="#3d6f96" stroke-width="1.5"/>
<text x="415" y="338" text-anchor="middle" font-size="9" fill="#3d6f96">5 А</text>
<rect x="408" y="387" width="14" height="7" fill="white" stroke="#3d7a4f" stroke-width="1.5" rx="2"/>
<line x1="408" y1="390" x2="422" y2="390" stroke="#3d7a4f" stroke-width="1.5"/>
<text x="415" y="378" text-anchor="middle" font-size="9" fill="#3d7a4f">5 А</text>
<polyline points="460,310 490,310 490,160" fill="none" stroke="#b07c14" stroke-width="2.0"/>
<line x1="490" y1="160" x2="520" y2="160" stroke="#b07c14" stroke-width="2.0"/>
<circle cx="520" cy="160" r="7" fill="white" stroke="#b07c14" stroke-width="1.5"/>
<line x1="516" y1="157" x2="524" y2="163" stroke="#b07c14" stroke-width="1.5"/>
<text x="520" y="144" text-anchor="middle" font-size="9" fill="#b07c14">реле</text>
<line x1="532" y1="160" x2="562" y2="160" stroke="#b07c14" stroke-width="2.0"/>
<rect x="555" y="157" width="14" height="7" fill="white" stroke="#b07c14" stroke-width="1.5" rx="2"/>
<line x1="558" y1="160" x2="566" y2="160" stroke="#b07c14" stroke-width="1.5"/>
<line x1="558" y1="166" x2="566" y2="154" stroke="#b07c14" stroke-width="1.2"/>
<text x="562" y="144" text-anchor="middle" font-size="9" fill="#b07c14">ШІМ-диммер 30 А</text>
<line x1="574" y1="160" x2="580" y2="160" stroke="#b07c14" stroke-width="2.5"/>
<text x="577" y="150" text-anchor="middle" font-size="9" fill="#c47a1a">~AWG12 4м 3.33А −1.2%</text>
<line x1="580" y1="160" x2="640" y2="160" stroke="#b07c14" stroke-width="2.5"/>
<text x="610" y="150" text-anchor="middle" font-size="9" fill="#b02020">~AWG12 12м 3.33А −3.5%</text>
<line x1="640" y1="160" x2="640" y2="215" stroke="#b07c14" stroke-width="1.8"/>
<rect x="590" y="215" width="100" height="28" rx="4" fill="#fff8ea" stroke="#b07c14" stroke-width="1.5"/>
<text x="640" y="227" text-anchor="middle" font-size="9" fill="#b07c14">8× прожектор MR16</text>
<text x="640" y="239" text-anchor="middle" font-size="9" fill="#6b675c">5 Вт кожен · Гр.1</text>
<text x="646" y="182" text-anchor="start" font-size="9" fill="#b02020">~AWG16 2.5м 0.42А −0.2%</text>
<text x="576" y="122" text-anchor="start" font-size="10" fill="#b07c14" font-weight="600">Гр.1 · прожектори заливки</text>
<polyline points="460,350 490,350 490,340" fill="none" stroke="#3d6f96" stroke-width="2.0"/>
<line x1="490" y1="340" x2="520" y2="340" stroke="#3d6f96" stroke-width="2.0"/>
<circle cx="520" cy="340" r="7" fill="white" stroke="#3d6f96" stroke-width="1.5"/>
<line x1="516" y1="337" x2="524" y2="343" stroke="#3d6f96" stroke-width="1.5"/>
<text x="520" y="324" text-anchor="middle" font-size="9" fill="#3d6f96">реле</text>
<line x1="532" y1="340" x2="542" y2="340" stroke="#3d6f96" stroke-width="2.0"/>
<rect x="542" y="327" width="58" height="26" rx="4" fill="#e8f0f8" stroke="#3d6f96" stroke-width="1.5"/>
<text x="571" y="336" text-anchor="middle" font-size="9" fill="#3d6f96" font-weight="600">WLED</text>
<text x="571" y="350" text-anchor="middle" font-size="9" fill="#3d6f96">контролер</text>
<line x1="600" y1="340" x2="590" y2="340" stroke="#3d6f96" stroke-width="2.5"/>
<text x="595" y="330" text-anchor="middle" font-size="9" fill="#24231d">~AWG8 5м 2.58А −0.4%</text>
<line x1="590" y1="260" x2="590" y2="420" stroke="#3d6f96" stroke-width="1.5" stroke-dasharray="4 3"/>
<line x1="590" y1="260" x2="810" y2="260" stroke="#3d6f96" stroke-width="2.0"/>
<text x="700" y="250" text-anchor="middle" font-size="9" fill="#24231d">~AWG14 4м 0.38А −0.2%</text>
<rect x="750" y="223" width="120" height="32" rx="4" fill="#e8f0f8" stroke="#3d6f96" stroke-width="1.5"/>
<text x="810" y="233" text-anchor="middle" font-size="9" fill="#3d6f96">8× рукав стрічки</text>
<text x="810" y="250" text-anchor="middle" font-size="9" fill="#6b675c">«Біжуча вода» WS2811</text>
<line x1="590" y1="340" x2="810" y2="340" stroke="#3d6f96" stroke-width="2.0"/>
<text x="700" y="330" text-anchor="middle" font-size="9" fill="#24231d">~AWG18 6м 0.27А −0.6%</text>
<rect x="750" y="324" width="120" height="32" rx="4" fill="#e8f0f8" stroke="#3d6f96" stroke-width="1.5"/>
<text x="810" y="336" text-anchor="middle" font-size="9" fill="#3d6f96">Лампи робота + WLED</text>
<text x="810" y="351" text-anchor="middle" font-size="9" fill="#6b675c">10× 0.4 Вт + контролер 4 Вт</text>
<line x1="590" y1="420" x2="810" y2="420" stroke="#3d6f96" stroke-width="2.0"/>
<text x="700" y="410" text-anchor="middle" font-size="9" fill="#c47a1a">~AWG18 7м 0.69А −1.7%</text>
<rect x="750" y="404" width="120" height="32" rx="4" fill="#e8f0f8" stroke="#3d6f96" stroke-width="1.5"/>
<text x="810" y="416" text-anchor="middle" font-size="9" fill="#3d6f96">Ядро на спині (спина)</text>
<text x="810" y="431" text-anchor="middle" font-size="9" fill="#6b675c">WS2812B 241 діод · 8.3 Вт пік</text>
<text x="602" y="232" text-anchor="start" font-size="10" fill="#3d6f96" font-weight="600">Гр.2 · декоративне (робот, вода)</text>
<polyline points="460,390 490,390 490,530" fill="none" stroke="#3d7a4f" stroke-width="2.0"/>
<line x1="490" y1="530" x2="520" y2="530" stroke="#3d7a4f" stroke-width="2.0"/>
<circle cx="520" cy="530" r="7" fill="white" stroke="#3d7a4f" stroke-width="1.5"/>
<line x1="516" y1="527" x2="524" y2="533" stroke="#3d7a4f" stroke-width="1.5"/>
<text x="520" y="514" text-anchor="middle" font-size="9" fill="#3d7a4f">реле</text>
<line x1="532" y1="530" x2="590" y2="530" stroke="#3d7a4f" stroke-width="2.5"/>
<text x="561" y="520" text-anchor="middle" font-size="9" fill="#24231d">~AWG12 6м 1.24А −0.6%</text>
<line x1="590" y1="530" x2="810" y2="530" stroke="#3d7a4f" stroke-width="2.0"/>
<text x="700" y="520" text-anchor="middle" font-size="9" fill="#b02020">~AWG16 10м 1.20А −2.6%</text>
<rect x="745" y="512" width="130" height="36" rx="4" fill="#e8f5ec" stroke="#3d7a4f" stroke-width="1.5"/>
<text x="810" y="524" text-anchor="middle" font-size="9" fill="#3d7a4f">24× врізні вогні торця</text>
<text x="810" y="540" text-anchor="middle" font-size="9" fill="#6b675c">0.6 Вт · IP67 · по колу подіуму</text>
<polyline points="126,340 146,340 146,585 810,585" fill="none" stroke="#3d7a4f" stroke-width="1.5"/>
<text x="478" y="575" text-anchor="middle" font-size="9" fill="#3d7a4f">~AWG18 1м 0.04А −0.0% (★)</text>
<rect x="745" y="567" width="130" height="36" rx="4" fill="#e8f5ec" stroke="#3d7a4f" stroke-width="1.5"/>
<text x="810" y="579" text-anchor="middle" font-size="9" fill="#3d7a4f">2× маркерний вогник</text>
<text x="810" y="595" text-anchor="middle" font-size="9" fill="#6b675c">ящика станції · 0.24 Вт · в стінці</text>
<text x="150" y="348" text-anchor="start" font-size="8" fill="#c9c6ba">окремо від щита</text>
<text x="534" y="500" text-anchor="start" font-size="10" fill="#3d7a4f" font-weight="600">Гр.3А · аварійна лінія</text>
<text x="36" y="548" text-anchor="start" font-size="11" fill="#24231d" font-weight="600">Легенда:</text>
<line x1="36" y1="566" x2="60" y2="566" stroke="#24231d" stroke-width="3.0"/>
<text x="66" y="570" text-anchor="start" font-size="10" fill="#6b675c">просадка у нормі (≤ 3%)</text>
<line x1="36" y1="586" x2="60" y2="586" stroke="#c47a1a" stroke-width="3.0"/>
<text x="66" y="590" text-anchor="start" font-size="10" fill="#6b675c">попередження (3–5%)</text>
<line x1="36" y1="606" x2="60" y2="606" stroke="#b02020" stroke-width="3.0"/>
<text x="66" y="610" text-anchor="start" font-size="10" fill="#6b675c">критична (> 5%) — підсвічено</text>
<rect x="41" y="625" width="14" height="7" fill="white" stroke="#24231d" stroke-width="1.5" rx="2"/>
<line x1="41" y1="628" x2="55" y2="628" stroke="#24231d" stroke-width="1.5"/>
<text x="66" y="632" text-anchor="start" font-size="10" fill="#6b675c">запобіжник (номінал вказано поруч)</text>
<circle cx="48" cy="648" r="6" fill="white" stroke="#24231d" stroke-width="1.5"/>
<line x1="45" y1="645" x2="51" y2="651" stroke="#24231d" stroke-width="1.5"/>
<text x="66" y="652" text-anchor="start" font-size="10" fill="#6b675c">реле групи</text>
<text x="36" y="672" text-anchor="start" font-size="10" fill="#c47a1a">★ = довжина прикидкова (estimate: true), не з креслення конструктора</text>
<text x="36" y="692" text-anchor="start" font-size="10" fill="#6b675c">підпис сегмента: AWG · довжина м · струм А · −просадка% (Σнакопичена%)</text>
<text x="540" y="548" text-anchor="start" font-size="11" fill="#24231d" font-weight="600">Запобіжники:</text>
<text x="540" y="562" text-anchor="start" font-size="10" fill="#24231d" font-weight="600">Лінія</text>
<text x="670" y="562" text-anchor="start" font-size="10" fill="#24231d" font-weight="600">Роб.А</text>
<text x="730" y="562" text-anchor="start" font-size="10" fill="#24231d" font-weight="600">Ном.А</text>
<text x="540" y="578" text-anchor="start" font-size="9" fill="#6b675c">Головний, на магістралі</text>
<text x="670" y="578" text-anchor="start" font-size="9" fill="#6b675c">7.15</text>
<text x="730" y="578" text-anchor="start" font-size="9" fill="#24231d" font-weight="600">15</text>
<text x="540" y="595" text-anchor="start" font-size="9" fill="#6b675c">Гр.1 · прожектори заливки</text>
<text x="670" y="595" text-anchor="start" font-size="9" fill="#6b675c">3.33</text>
<text x="730" y="595" text-anchor="start" font-size="9" fill="#24231d" font-weight="600">5</text>
<text x="540" y="612" text-anchor="start" font-size="9" fill="#6b675c">Гр.2 · декоративне (робот, вода)</text>
<text x="670" y="612" text-anchor="start" font-size="9" fill="#6b675c">2.58</text>
<text x="730" y="612" text-anchor="start" font-size="9" fill="#24231d" font-weight="600">5</text>
<text x="540" y="629" text-anchor="start" font-size="9" fill="#6b675c">Гр.3А · аварійна лінія</text>
<text x="670" y="629" text-anchor="start" font-size="9" fill="#6b675c">1.24</text>
<text x="730" y="629" text-anchor="start" font-size="9" fill="#24231d" font-weight="600">5</text>
<text x="500" y="672" text-anchor="middle" font-size="9" fill="#c9c6ba">Числа з lights_node_model.cable_tree() — не вигадані. Довжини — прикидки до замірів на місці збірки.</text>
</svg>