<svg xmlns="http://www.w3.org/2000/svg" viewBox="0 0 620 420" font-family="ui-monospace,Menlo,monospace">
<circle cx="300" cy="215" r="130" fill="none" stroke="#c9c6ba" stroke-width="1.5" stroke-dasharray="5 4"/>
<circle cx="300" cy="215" r="34" fill="none" stroke="#c9c6ba"/>
<text x="300" y="219" text-anchor="middle" font-size="10" fill="#6b675c">подіум</text>
<line x1="300" y1="215" x2="300.0" y2="85.0" stroke="#b35b1e" stroke-width="2"/>
<line x1="300" y1="215" x2="391.9" y2="123.1" stroke="#b35b1e" stroke-width="2"/>
<line x1="300" y1="215" x2="430.0" y2="215.0" stroke="#b35b1e" stroke-width="2"/>
<line x1="300" y1="215" x2="391.9" y2="306.9" stroke="#b35b1e" stroke-width="2"/>
<line x1="300" y1="215" x2="300.0" y2="345.0" stroke="#b35b1e" stroke-width="2"/>
<line x1="300" y1="215" x2="208.1" y2="306.9" stroke="#b35b1e" stroke-width="2"/>
<line x1="300" y1="215" x2="170.0" y2="215.0" stroke="#b35b1e" stroke-width="2"/>
<line x1="300" y1="215" x2="208.1" y2="123.1" stroke="#b35b1e" stroke-width="2"/>
<circle cx="300.0" cy="85.0" r="7" fill="#fff" stroke="#24231d" stroke-width="1.6"/>
<text x="300.0" y="63.0" text-anchor="middle" font-size="10" fill="#24231d">0.50A</text>
<circle cx="391.9" cy="123.1" r="7" fill="#fff" stroke="#24231d" stroke-width="1.6"/>
<text x="410.3" y="108.7" text-anchor="middle" font-size="10" fill="#24231d">0.50A</text>
<circle cx="430.0" cy="215.0" r="7" fill="#fff" stroke="#24231d" stroke-width="1.6"/>
<text x="456.0" y="219.0" text-anchor="middle" font-size="10" fill="#24231d">0.50A</text>
<circle cx="391.9" cy="306.9" r="7" fill="#fff" stroke="#24231d" stroke-width="1.6"/>
<text x="410.3" y="329.3" text-anchor="middle" font-size="10" fill="#24231d">0.50A</text>
<circle cx="300.0" cy="345.0" r="7" fill="#fff" stroke="#24231d" stroke-width="1.6"/>
<text x="300.0" y="375.0" text-anchor="middle" font-size="10" fill="#24231d">0.50A</text>
<circle cx="208.1" cy="306.9" r="7" fill="#fff" stroke="#24231d" stroke-width="1.6"/>
<text x="189.7" y="329.3" text-anchor="middle" font-size="10" fill="#24231d">0.50A</text>
<circle cx="170.0" cy="215.0" r="7" fill="#fff" stroke="#24231d" stroke-width="1.6"/>
<text x="144.0" y="219.0" text-anchor="middle" font-size="10" fill="#24231d">0.50A</text>
<circle cx="208.1" cy="123.1" r="7" fill="#fff" stroke="#24231d" stroke-width="1.6"/>
<text x="189.7" y="108.7" text-anchor="middle" font-size="10" fill="#24231d">0.50A</text>
<rect x="248" y="196" width="104" height="38" rx="4" fill="#fff" stroke="#24231d" stroke-width="1.8"/>
<text x="300" y="211" text-anchor="middle" font-size="11" fill="#24231d">коробка</text>
<text x="300" y="226" text-anchor="middle" font-size="9" fill="#6b675c">8 пар + 5A</text>
<line x1="248" y1="215" x2="26" y2="215" stroke="#3d6f96" stroke-width="2.5"/>
<text x="26" y="205" font-size="10" fill="#3d6f96">магістраль AWG 8 · ШІМ-диммер</text>
<text x="26" y="235" font-size="10" fill="#6b675c">4.00 A на повній</text>
<text x="300" y="26" text-anchor="middle" font-size="12" fill="#24231d">Прожектори: своя пара до кожної стійки з однієї коробки</text>
<text x="300" y="44" text-anchor="middle" font-size="10" fill="#6b675c">промінь 1.30 м · кабель AWG 16 · просадка 0.4% і однакова в усіх · зʼєднань у полі нема</text>
</svg>