<svg xmlns="http://www.w3.org/2000/svg" width="1180" height="700" viewBox="0 0 1180 700">
<rect width="1180" height="700" fill="#fff"/>
<text x="270.0" y="30.0" font-family="Helvetica, Arial" font-size="14" text-anchor="middle" font-weight="bold">Вид спереду — отвір у броні</text>
<circle cx="270.0" cy="250.0" r="153.0" fill="none" stroke="#000" stroke-width="1.4"/>
<circle cx="270.0" cy="250.0" r="122.4" fill="none" stroke="#000" stroke-width="1.4" stroke-dasharray="7,5"/>
<circle cx="270.0" cy="250.0" r="102.0" fill="none" stroke="#000" stroke-width="1.0"/>
<circle cx="368.6" cy="348.6" r="6.8" fill="none" stroke="#000" stroke-width="1.2"/>
<circle cx="171.4" cy="348.6" r="6.8" fill="none" stroke="#000" stroke-width="1.2"/>
<circle cx="171.4" cy="151.4" r="6.8" fill="none" stroke="#000" stroke-width="1.2"/>
<circle cx="368.6" cy="151.4" r="6.8" fill="none" stroke="#000" stroke-width="1.2"/>
<line x1="147.6" y1="437.0" x2="392.4" y2="437.0" stroke="#000" stroke-width="1.0"/>
<line x1="147.6" y1="432.0" x2="147.6" y2="442.0" stroke="#000" stroke-width="1.0"/>
<line x1="392.4" y1="432.0" x2="392.4" y2="442.0" stroke="#000" stroke-width="1.0"/>
<text x="270.0" y="430.0" font-family="Helvetica, Arial" font-size="11" text-anchor="middle" font-weight="normal">Ø72 — отвір у броні</text>
<line x1="117.0" y1="469.0" x2="423.0" y2="469.0" stroke="#000" stroke-width="1.0"/>
<line x1="117.0" y1="464.0" x2="117.0" y2="474.0" stroke="#000" stroke-width="1.0"/>
<line x1="423.0" y1="464.0" x2="423.0" y2="474.0" stroke="#000" stroke-width="1.0"/>
<text x="270.0" y="462.0" font-family="Helvetica, Arial" font-size="11" text-anchor="middle" font-weight="normal">Ø90 — фланець зовні</text>
<text x="270.0" y="499.0" font-family="Helvetica, Arial" font-size="11" text-anchor="middle" font-weight="normal">чотири отвори Ø4 по колу Ø82 · штрихове коло — межа отвору, суцільне зовнішнє — фланець</text>
<text x="850.0" y="30.0" font-family="Helvetica, Arial" font-size="14" text-anchor="middle" font-weight="bold">Розріз — як динамік сідає в обшивку</text>
<rect x="700.0" y="130.0" width="10.2" height="374.0" fill="#e8e8e8" stroke="#000" stroke-width="1.4"/>
<text x="705.1" y="120.0" font-family="Helvetica, Arial" font-size="11" text-anchor="middle" font-weight="normal">обшивка броні 1.6–3 мм</text>
<rect x="699.0" y="194.6" width="12.2" height="244.8" fill="#fff" stroke="#000" stroke-width="0"/>
<line x1="700.0" y1="194.6" x2="710.2" y2="194.6" stroke="#000" stroke-width="1.4"/>
<line x1="700.0" y1="439.4" x2="710.2" y2="439.4" stroke="#000" stroke-width="1.4"/>
<rect x="710.2" y="194.6" width="125.8" height="244.8" fill="none" stroke="#000" stroke-width="1.4"/>
<text x="773.1" y="321.0" font-family="Helvetica, Arial" font-size="11" text-anchor="middle" font-weight="normal">корпус динаміка</text>
<rect x="679.6" y="164.0" width="20.4" height="306.0" fill="#d0d0d0" stroke="#000" stroke-width="1.4"/>
<text x="671.6" y="156.0" font-family="Helvetica, Arial" font-size="11" text-anchor="end" font-weight="normal">фланець зовні</text>
<line x1="710.2" y1="168.6" x2="836.0" y2="168.6" stroke="#000" stroke-width="1.0"/>
<line x1="710.2" y1="163.6" x2="710.2" y2="173.6" stroke="#000" stroke-width="1.0"/>
<line x1="836.0" y1="163.6" x2="836.0" y2="173.6" stroke="#000" stroke-width="1.0"/>
<text x="773.1" y="161.6" font-family="Helvetica, Arial" font-size="11" text-anchor="middle" font-weight="normal">37 мм углиб</text>
<line x1="866.0" y1="194.6" x2="866.0" y2="439.4" stroke="#000" stroke-width="1.0"/>
<line x1="861.0" y1="194.6" x2="871.0" y2="194.6" stroke="#000" stroke-width="1.0"/>
<line x1="861.0" y1="439.4" x2="871.0" y2="439.4" stroke="#000" stroke-width="1.0"/>
<text x="872.0" y="321.0" font-family="Helvetica, Arial" font-size="11" text-anchor="start" font-weight="normal">Ø72</text>
<text x="590.0" y="590.0" font-family="Helvetica, Arial" font-size="11" text-anchor="middle" font-weight="normal">За обшивкою ~140 мм порожнього каркаса — по глибині влазить будь-який варіант.</text>
<text x="590.0" y="611.0" font-family="Helvetica, Arial" font-size="11" text-anchor="middle" font-weight="normal">Мембраною ВНИЗ (нахил ~90°): так пил не сідає на конус, а вода стікає.</text>
<text x="590.0" y="632.0" font-family="Helvetica, Arial" font-size="11" text-anchor="middle" font-weight="normal">Фланець тисне обшивку зовні через тонку прокладку; шов по колу — силіконом.</text>
<text x="590.0" y="684.0" font-family="Helvetica, Arial" font-size="11" text-anchor="middle" font-weight="normal">Креслення нашого боку. Остаточний Ø у броні і місце (груди Ø60 чи живіт) — за конструктором: питання відкрите з 24.07.</text>
</svg>